<?xml version="1.0" encoding="UTF-8" standalone="no"?>
<!-- Created with Inkscape (http://www.inkscape.org/) -->

<svg
   version="1.1"
   id="svg9"
   xml:space="preserve"
   width="285.04883"
   height="183.7648"
   viewBox="0 0 285.04884 183.7648"
   sodipodi:docname="bc-robop-logo.svg"
   inkscape:version="1.1.1 (c3084ef, 2021-09-22)"
   xmlns:inkscape="http://www.inkscape.org/namespaces/inkscape"
   xmlns:sodipodi="http://sodipodi.sourceforge.net/DTD/sodipodi-0.dtd"
   xmlns="http://www.w3.org/2000/svg"
   xmlns:svg="http://www.w3.org/2000/svg"><defs
     id="defs13"><clipPath
       clipPathUnits="userSpaceOnUse"
       id="clipPath25"><path
         d="m 121.668,277.808 h 615.721 v 240.84 H 121.668 Z"
         id="path23" /></clipPath><clipPath
       clipPathUnits="userSpaceOnUse"
       id="clipPath393"><path
         d="m 322.308,93.488 h 214.56 v 138.72 h -214.56 z"
         id="path391" /></clipPath></defs><sodipodi:namedview
     id="namedview11"
     pagecolor="#ffffff"
     bordercolor="#666666"
     borderopacity="1.0"
     inkscape:pageshadow="2"
     inkscape:pageopacity="0.0"
     inkscape:pagecheckerboard="0"
     showgrid="false"
     inkscape:zoom="2.265417"
     inkscape:cx="136.84015"
     inkscape:cy="124.25968"
     inkscape:window-width="1701"
     inkscape:window-height="969"
     inkscape:window-x="0"
     inkscape:window-y="25"
     inkscape:window-maximized="0"
     inkscape:current-layer="g15"
     fit-margin-top="0"
     fit-margin-left="0"
     fit-margin-right="0"
     fit-margin-bottom="0" /><g
     id="g15"
     inkscape:groupmode="layer"
     inkscape:label="BC-ROBOPロゴ1"
     transform="matrix(1.3333333,0,0,-1.3333333,3.3532154e-7,183.76481)"><g
       id="g1947"
       transform="translate(-343.11585,-261.40868)"><g
         id="g395"
         transform="translate(471.2124,277.27679)"
         style="fill:#2a7fff"><path
           d="m 0,0 c -7.773,0 -14.051,6.258 -14.051,14.006 0,7.748 6.278,14.006 14.051,14.006 7.772,0 14.051,-6.258 14.051,-14.006 C 14.051,6.333 7.772,0 0,0 m 23.168,14.379 c 0,2.756 -0.522,5.437 -1.42,7.896 l 5.755,2.086 c -1.195,3.203 -2.914,6.11 -5.156,8.717 l -4.634,-3.949 c -1.72,2.086 -3.812,3.8 -6.203,5.141 l 3.063,5.29 C 11.584,41.272 8.37,42.39 5.007,42.986 L 3.961,36.952 C 2.69,37.175 1.345,37.324 0,37.324 c -1.42,0 -2.766,-0.149 -4.11,-0.372 l -1.047,6.034 c -3.364,-0.596 -6.577,-1.788 -9.567,-3.502 l 3.065,-5.289 c -2.318,-1.341 -4.41,-3.129 -6.129,-5.14 l -4.708,3.874 c -2.168,-2.608 -3.887,-5.588 -5.083,-8.791 l 5.755,-2.086 c -0.897,-2.458 -1.345,-5.066 -1.345,-7.823 v -0.074 h -6.128 c 0,-3.427 0.597,-6.779 1.793,-9.983 l 5.755,2.086 c 0.972,-2.533 2.317,-4.917 4.036,-6.928 l -4.708,-3.949 c 2.241,-2.608 4.858,-4.768 7.773,-6.482 l 3.063,5.29 c 2.317,-1.34 4.858,-2.235 7.549,-2.756 l -1.046,-6.035 c 1.644,-0.297 3.363,-0.447 5.082,-0.447 1.719,0 3.438,0.15 5.082,0.447 l -1.047,6.035 c 2.692,0.447 5.233,1.416 7.549,2.756 l 3.064,-5.29 c 2.99,1.714 5.606,3.874 7.773,6.482 l -4.708,3.949 c 1.719,2.011 3.063,4.395 4.035,6.928 l 5.755,-2.086 c 1.196,3.204 1.794,6.556 1.794,9.983 v 0.074 h -6.129 z"
           style="fill:#2a7fff;fill-opacity:1;fill-rule:nonzero;stroke:none"
           id="path397" /></g><g
         id="g403"
         transform="translate(532.1236,339.63229)"
         style="fill:#2a7fff"><path
           d="m 0,0 c -4.484,0 -8.146,3.65 -8.146,8.121 0,4.47 3.662,8.12 8.146,8.12 4.484,0 8.146,-3.65 8.146,-8.12 C 8.146,3.65 4.484,0 0,0 M 23.617,11.175 C 18.161,26.224 -4.484,31.886 -26.98,23.766 -28.476,23.244 -29.97,22.648 -31.465,21.978 -45.59,40.007 -69.282,59.6 -102.54,59.6 c -45.889,0 -61.958,-29.725 -83.108,-56.247 -8.745,-10.952 0.448,-24.957 17.563,-36.207 0.822,1.341 1.719,2.682 2.765,3.875 l 1.196,1.415 4.708,-3.949 c 1.196,1.193 2.467,2.236 3.812,3.203 l -3.139,5.365 1.644,0.968 c 3.139,1.863 6.577,3.054 10.164,3.725 l 1.869,0.298 1.121,-6.034 c 1.644,0.149 3.289,0.149 5.008,0 l 1.046,6.109 1.868,-0.299 c 3.587,-0.595 7.025,-1.862 10.165,-3.65 l 1.644,-0.894 -3.064,-5.364 c 1.345,-0.969 2.69,-2.012 3.811,-3.203 l 4.709,3.948 1.195,-1.415 c 2.392,-2.757 4.186,-5.886 5.457,-9.312 l 0.672,-1.714 -5.83,-2.16 c 0.449,-1.565 0.748,-3.204 0.897,-4.917 h 6.203 v -1.938 c 0,-1.266 -0.074,-2.458 -0.224,-3.724 2.691,-0.224 5.306,-0.298 7.923,-0.298 3.587,0 7.174,0.148 10.762,0.521 -0.225,1.415 -0.299,2.756 -0.299,4.172 v 1.862 h 6.203 c 0.15,1.639 0.374,3.279 0.822,4.917 l -5.83,2.086 0.673,1.788 c 1.271,3.427 3.065,6.556 5.381,9.313 l 1.196,1.415 4.708,-3.948 c 1.197,1.192 2.467,2.235 3.812,3.203 l -3.139,5.364 1.645,0.969 c 3.138,1.862 6.576,3.054 10.164,3.724 l 1.868,0.298 1.121,-6.034 c 1.645,0.149 3.289,0.149 5.008,0 l 1.046,6.109 1.869,-0.297 c 3.587,-0.597 7.024,-1.864 10.164,-3.652 l 1.644,-0.893 -3.064,-5.365 c 1.345,-0.967 2.69,-2.01 3.812,-3.203 l 4.708,3.949 1.196,-1.416 c 1.569,-1.862 2.914,-3.874 4.035,-6.035 7.923,-0.819 16.816,0.15 25.785,3.428 22.347,7.897 36.173,26.67 30.792,41.719"
           style="fill:#2a7fff;fill-opacity:1;fill-rule:nonzero;stroke:none"
           id="path405" /></g><g
         id="g407"
         transform="translate(532.1236,339.63229)"
         style="fill:#2a7fff"><path
           d="m 0,0 c -4.484,0 -8.146,3.65 -8.146,8.121 0,4.47 3.662,8.12 8.146,8.12 4.484,0 8.146,-3.65 8.146,-8.12 C 8.146,3.65 4.484,0 0,0 M 23.617,11.175 C 18.161,26.224 -4.484,31.886 -26.98,23.766 -28.476,23.244 -29.97,22.648 -31.465,21.978 -45.59,40.007 -69.282,59.6 -102.54,59.6 c -45.889,0 -61.958,-29.725 -83.108,-56.247 -8.745,-10.952 0.448,-24.957 17.563,-36.207 0.822,1.341 1.719,2.682 2.765,3.875 l 1.196,1.415 4.708,-3.949 c 1.196,1.193 2.467,2.236 3.812,3.203 l -3.139,5.365 1.644,0.968 c 3.139,1.863 6.577,3.054 10.164,3.725 l 1.869,0.298 1.121,-6.034 c 1.644,0.149 3.289,0.149 5.008,0 l 1.046,6.109 1.868,-0.299 c 3.587,-0.595 7.025,-1.862 10.165,-3.65 l 1.644,-0.894 -3.064,-5.364 c 1.345,-0.969 2.69,-2.012 3.811,-3.203 l 4.709,3.948 1.195,-1.415 c 2.392,-2.757 4.186,-5.886 5.457,-9.312 l 0.672,-1.714 -5.83,-2.16 c 0.449,-1.565 0.748,-3.204 0.897,-4.917 h 6.203 v -1.938 c 0,-1.266 -0.074,-2.458 -0.224,-3.724 2.691,-0.224 5.306,-0.298 7.923,-0.298 3.587,0 7.174,0.148 10.762,0.521 -0.225,1.415 -0.299,2.756 -0.299,4.172 v 1.862 h 6.203 c 0.15,1.639 0.374,3.279 0.822,4.917 l -5.83,2.086 0.673,1.788 c 1.271,3.427 3.065,6.556 5.381,9.313 l 1.196,1.415 4.708,-3.948 c 1.197,1.192 2.467,2.235 3.812,3.203 l -3.139,5.364 1.645,0.969 c 3.138,1.862 6.576,3.054 10.164,3.724 l 1.868,0.298 1.121,-6.034 c 1.645,0.149 3.289,0.149 5.008,0 l 1.046,6.109 1.869,-0.297 c 3.587,-0.597 7.024,-1.864 10.164,-3.652 l 1.644,-0.893 -3.064,-5.365 c 1.345,-0.967 2.69,-2.01 3.812,-3.203 l 4.708,3.949 1.196,-1.416 c 1.569,-1.862 2.914,-3.874 4.035,-6.035 7.923,-0.819 16.816,0.15 25.785,3.428 22.347,7.897 36.173,26.67 30.792,41.719"
           style="fill:#2a7fff;fill-opacity:1;fill-rule:nonzero;stroke:none"
           id="path409" /></g><g
         id="g411"
         transform="translate(390.71981,276.53169)"
         style="fill:#2a7fff"><path
           d="m 0,0 c -7.773,0 -14.051,6.258 -14.051,14.006 0,7.748 6.278,14.006 14.051,14.006 7.772,0 14.051,-6.258 14.051,-14.006 C 14.051,6.258 7.772,0 0,0 m 23.168,14.304 c 0,2.757 -0.522,5.438 -1.419,7.897 l 5.754,2.086 c -1.195,3.203 -2.914,6.109 -5.156,8.716 l -4.634,-3.948 c -1.719,2.086 -3.812,3.799 -6.203,5.14 l 3.064,5.289 c -2.99,1.714 -6.203,2.831 -9.567,3.428 L 3.961,36.877 C 2.69,37.101 1.345,37.25 0,37.25 c -1.42,0 -2.765,-0.149 -4.11,-0.373 l -1.047,6.035 c -3.363,-0.597 -6.577,-1.788 -9.566,-3.502 l 3.064,-5.289 c -2.317,-1.341 -4.41,-3.129 -6.129,-5.141 l -4.708,3.874 c -2.168,-2.607 -3.886,-5.587 -5.082,-8.791 l 5.755,-2.085 c -0.897,-2.459 -1.345,-5.067 -1.345,-7.823 V 14.08 h -6.129 c 0,-3.427 0.598,-6.779 1.794,-9.982 l 5.754,2.086 c 0.972,-2.534 2.317,-4.917 4.036,-6.929 l -4.708,-3.948 c 2.242,-2.608 4.858,-4.768 7.773,-6.482 l 3.064,5.29 c 2.316,-1.342 4.857,-2.235 7.548,-2.757 l -1.046,-6.034 c 1.644,-0.298 3.363,-0.447 5.082,-0.447 1.719,0 3.438,0.149 5.082,0.447 l -1.046,6.034 c 2.691,0.448 5.232,1.415 7.548,2.757 l 3.064,-5.29 c 2.99,1.714 5.606,3.874 7.773,6.482 l -4.708,3.948 c 1.719,2.012 3.064,4.395 4.036,6.929 l 5.754,-2.086 c 1.196,3.203 1.794,6.555 1.794,9.982 v 0.075 h -6.129 z"
           style="fill:#2a7fff;fill-opacity:1;fill-rule:nonzero;stroke:none"
           id="path413" /></g><g
         id="g415"
         transform="translate(390.71981,276.53169)"
         style="fill:#2a7fff"><path
           d="m 0,0 c -7.773,0 -14.051,6.258 -14.051,14.006 0,7.748 6.278,14.006 14.051,14.006 7.772,0 14.051,-6.258 14.051,-14.006 C 14.051,6.258 7.772,0 0,0 m 23.168,14.304 c 0,2.757 -0.522,5.438 -1.419,7.897 l 5.754,2.086 c -1.195,3.203 -2.914,6.109 -5.156,8.716 l -4.634,-3.948 c -1.719,2.086 -3.812,3.799 -6.203,5.14 l 3.064,5.289 c -2.99,1.714 -6.203,2.831 -9.567,3.428 L 3.961,36.877 C 2.69,37.101 1.345,37.25 0,37.25 c -1.42,0 -2.765,-0.149 -4.11,-0.373 l -1.047,6.035 c -3.363,-0.597 -6.577,-1.788 -9.566,-3.502 l 3.064,-5.289 c -2.317,-1.341 -4.41,-3.129 -6.129,-5.141 l -4.708,3.874 c -2.168,-2.607 -3.886,-5.587 -5.082,-8.791 l 5.755,-2.085 c -0.897,-2.459 -1.345,-5.067 -1.345,-7.823 V 14.08 h -6.129 c 0,-3.427 0.598,-6.779 1.794,-9.982 l 5.754,2.086 c 0.972,-2.534 2.317,-4.917 4.036,-6.929 l -4.708,-3.948 c 2.242,-2.608 4.858,-4.768 7.773,-6.482 l 3.064,5.29 c 2.316,-1.342 4.857,-2.235 7.548,-2.757 l -1.046,-6.034 c 1.644,-0.298 3.363,-0.447 5.082,-0.447 1.719,0 3.438,0.149 5.082,0.447 l -1.046,6.034 c 2.691,0.448 5.232,1.415 7.548,2.757 l 3.064,-5.29 c 2.99,1.714 5.606,3.874 7.773,6.482 l -4.708,3.948 c 1.719,2.012 3.064,4.395 4.036,6.929 l 5.754,-2.086 c 1.196,3.203 1.794,6.555 1.794,9.982 v 0.075 h -6.129 z"
           style="fill:#2a7fff;fill-opacity:1;fill-rule:nonzero;stroke:none"
           id="path417" /></g></g></g></svg>
